<svg version="1.1" viewBox="0.0 0.0 960.0 960.0" fill="none" stroke="none" stroke-linecap="square" stroke-miterlimit="10" xmlns:xlink="http://www.w3.org/1999/xlink" xmlns="http://www.w3.org/2000/svg"><clipPath id="g33b8829e504_0_18.0"><path d="m0 0l960.0 0l0 960.0l-960.0 0l0 -960.0z" clip-rule="nonzero"/></clipPath><g clip-path="url(#g33b8829e504_0_18.0)"><path fill="#000000" fill-opacity="0.0" d="m0 0l960.0 0l0 960.0l-960.0 0z" fill-rule="evenodd"/><path fill="#2467b1" d="m-0.002624672 479.9895l0 0c0 -265.09668 214.90332 -480.0 480.0 -480.0l0 0c127.303894 0 249.3938 50.57128 339.41125 140.58875c90.017456 90.017456 140.58875 212.10733 140.58875 339.41125l0 0c0 265.09668 -214.90332 480.0 -480.0 480.0l0 0c-265.09668 0 -480.0 -214.90332 -480.0 -480.0z" fill-rule="evenodd"/><path stroke="#595959" stroke-width="1.0" stroke-linejoin="round" stroke-linecap="butt" d="m-0.002624672 479.9895l0 0c0 -265.09668 214.90332 -480.0 480.0 -480.0l0 0c127.303894 0 249.3938 50.57128 339.41125 140.58875c90.017456 90.017456 140.58875 212.10733 140.58875 339.41125l0 0c0 265.09668 -214.90332 480.0 -480.0 480.0l0 0c-265.09668 0 -480.0 -214.90332 -480.0 -480.0z" fill-rule="evenodd"/><path fill="#000000" fill-opacity="0.0" d="m455.7874 526.68414l507.0551 0l0 48.472473l-507.0551 0z" fill-rule="evenodd"/><path fill="#000000" fill-opacity="0.0" d="m32.72266 227.26947l894.5512 0l0 383.0866l-894.5512 0z" fill-rule="evenodd"/><path fill="#ffffff" d="m264.3928 151.72217q4.109375 0 10.9375 0.421875q6.84375 0.40625 10.125 0.671875l0 29.671875q-3.96875 -0.40625 -7.59375 -0.609375q-3.625 -0.203125 -6.765625 -0.203125q-8.34375 0 -11.828125 3.625q-3.484375 3.609375 -3.484375 14.828125l0 6.703125l27.484375 0l0 26.65625l-27.484375 0l0 118.125l-39.78125 0l0 -118.125l-23.796875 0l0 -26.65625l23.796875 0l0 -9.984375q0 -22.5625 13.046875 -33.84375q13.0625 -11.28125 35.34375 -11.28125zm102.67969 51.28125q32.125 0 47.78125 10.53125q15.65625 10.515625 15.65625 29.65625l0 77.65625q0 8.75 1.15625 17.5q1.171875 8.75 3.90625 13.265625l-40.34375 0q-1.09375 -3.28125 -1.84375 -6.765625q-0.75 -3.484375 -1.015625 -7.046875q-8.34375 8.609375 -20.71875 13.203125q-12.375 4.578125 -27.953125 4.578125q-22.421875 0 -35.828125 -11.28125q-13.390625 -11.28125 -13.390625 -32.203125q0 -20.234375 12.578125 -30.96875q12.578125 -10.734375 45.796875 -14.421875q23.109375 -2.1875 30.484375 -5.671875q7.390625 -3.484375 7.390625 -12.09375q0 -9.71875 -5.6875 -14.5625q-5.671875 -4.859375 -19.890625 -4.859375q-12.296875 0 -18.859375 5.265625q-6.5625 5.265625 -7.65625 16.609375l-39.78125 0q1.640625 -23.78125 19.609375 -36.078125q17.984375 -12.3125 48.609375 -12.3125zm-32.953125 107.453125q0 8.609375 5.875 13.53125q5.890625 4.921875 18.59375 4.921875q15.859375 0 24.0 -8.328125q8.140625 -8.34375 8.140625 -24.34375l0 -15.453125q-3.5625 2.875 -9.375 4.3125q-5.8125 1.4375 -20.984375 3.625q-13.53125 1.78125 -19.890625 7.046875q-6.359375 5.25 -6.359375 14.6875zm196.6094 -107.453125q28.015625 0 47.21875 14.5q19.21875 14.484375 20.859375 40.3125l-38.96875 0q-1.765625 -12.4375 -9.15625 -18.65625q-7.375 -6.21875 -20.234375 -6.21875q-16.0 0 -24.890656 13.125q-8.875 13.125 -8.875 33.90625q0 20.78125 8.75 33.21875q8.7500305 12.4375 24.203156 12.4375q13.25 0 21.453125 -7.578125q8.203125 -7.59375 10.265625 -21.953125l38.28125 0q-3.96875 28.71875 -22.4375 44.109375q-18.453125 15.375 -47.296875 15.375q-32.265656 0 -52.640656 -20.71875q-20.359375 -20.71875 -20.359375 -53.53125q0 -35.125 20.015625 -56.71875q20.03125 -21.609375 53.81253 -21.609375zm158.3125 0q32.125 0 51.328125 22.078125q19.21875 22.078125 19.21875 56.390625l-0.265625 7.390625l-104.453125 0q0.8125 18.71875 9.765625 27.75q8.953125 9.015625 25.640625 9.015625q10.796875 0 19.953125 -5.53125q9.171875 -5.53125 11.625 -13.328125l35.0 0q-8.0625 24.609375 -24.890625 36.71875q-16.8125 12.09375 -42.921875 12.09375q-33.5 0 -53.734375 -21.1875q-20.234375 -21.203125 -20.234375 -54.96875q0 -32.40625 20.71875 -54.40625q20.71875 -22.015625 53.25 -22.015625zm-34.171875 60.703125l64.65625 0q-2.859375 -16.0 -10.3125 -23.375q-7.453125 -7.390625 -21.53125 -7.390625q-14.5 0 -22.984375 8.203125q-8.46875 8.203125 -9.828125 22.5625z" fill-rule="nonzero"/><path fill="#ffffff" d="m122.61936 487.72214l0 72.734344l0.6875 0q6.4218674 -9.84375 18.453117 -15.640625q12.03125 -5.8125 27.0625 -5.8125q25.4375 0 42.734375 20.578125q17.296875 20.5625 17.296875 55.5625q0 34.734375 -17.296875 55.59375q-17.296875 20.84375 -42.859375 20.84375q-17.5 0 -29.53125 -5.8125q-12.031242 -5.8125 -17.921867 -16.609375l-0.546875 0l0 18.453125l-37.734375 0l0 -199.8906l39.65625 0zm-1.375 127.703094q0 20.78125 9.156242 33.5q9.171875 12.703125 24.75 12.703125q15.59375 0 24.75 -12.703125q9.15625 -12.71875 9.15625 -33.5q0 -20.921875 -8.953125 -33.703125q-8.953125 -12.78125 -25.21875 -12.78125q-15.171875 0 -24.40625 12.515625q-9.234367 12.5 -9.234367 33.96875zm172.41016 -72.59375l0 82.984375q0 16.40625 5.734375 25.359375q5.75 8.953125 19.828125 8.953125q16.40625 0 23.578125 -9.90625q7.1875 -9.921875 7.1875 -30.15625l0 -77.234375l39.78125 0l0 144.78125l-37.875 0l0 -20.09375l-0.8125 0q-7.515625 12.03125 -19.421875 18.046875q-11.890625 6.015625 -25.015625 6.015625q-26.9375 0 -39.796875 -13.734375q-12.84375 -13.75 -12.84375 -44.375l0 -90.640625l39.65625 0zm267.4141 -55.109344l0 199.8906l-37.859375 0l0 -18.453125l-0.546875 0q-6.4375 11.0625 -17.71878 16.75q-11.265625 5.671875 -26.171875 5.671875q-29.671875 0 -47.3125 -21.8125q-17.625 -21.8125 -17.625 -55.84375q0 -32.265625 17.359375 -53.59375q17.359375 -21.328125 46.75 -21.328125q13.546875 0 24.75 5.46875q11.2187805 5.46875 18.046906 15.984375l0.546875 0l0 -72.734344l39.78125 0zm-107.59378 127.296844q0 20.234375 9.4375 33.421875q9.4375 13.1875 25.5625 13.1875q16.546875 0 25.359406 -12.234375q8.828125 -12.234375 8.828125 -34.515625q0 -21.1875 -8.625 -33.5625q-8.6094055 -12.375 -25.703156 -12.375q-16.53125 0 -25.703125 12.375q-9.15625 12.375 -9.15625 33.703125zm278.62894 -127.296844l0 199.8906l-37.859375 0l0 -18.453125l-0.546875 0q-6.4375 11.0625 -17.71875 16.75q-11.265625 5.671875 -26.171875 5.671875q-29.671875 0 -47.3125 -21.8125q-17.625 -21.8125 -17.625 -55.84375q0 -32.265625 17.359375 -53.59375q17.359375 -21.328125 46.75 -21.328125q13.546875 0 24.75 5.46875q11.21875 5.46875 18.046875 15.984375l0.546875 0l0 -72.734344l39.78125 0zm-107.59375 127.296844q0 20.234375 9.4375 33.421875q9.4375 13.1875 25.5625 13.1875q16.546875 0 25.359375 -12.234375q8.828125 -12.234375 8.828125 -34.515625q0 -21.1875 -8.625 -33.5625q-8.609375 -12.375 -25.703125 -12.375q-16.53125 0 -25.703125 12.375q-9.15625 12.375 -9.15625 33.703125zm163.23828 -72.1875l32.8125 99.109375l0.546875 0l31.59375 -99.109375l41.140625 0l-61.515625 165.70312q-5.46875 14.484375 -16.828125 22.28125q-11.34375 7.796875 -29.390625 7.796875q-8.609375 0 -14.5625 -0.421875q-5.9375 -0.40625 -12.234375 -1.078125l0 -32.6875q7.25 0.828125 11.890625 1.09375q4.65625 0.28125 8.890625 0.28125q8.484375 0 13.125 -5.203125q4.65625 -5.1875 4.65625 -12.984375q0 -2.046875 -0.28125 -4.03125q-0.265625 -1.984375 -1.5 -5.0l-51.0 -135.75l42.65625 0z" fill-rule="nonzero"/></g></svg>